<svg id="Layer_1" data-name="Layer 1" xmlns="http://www.w3.org/2000/svg" viewBox="0 0 258.02 297.99"><defs><style>.cls-1,.cls-3{fill:#231f20;}.cls-2{fill:#ed1c24;}.cls-3{font-size:35.49px;font-family:Copperplate;}</style></defs><title>logo</title><path class="cls-1" d="M245.52,93.07h-2.9a1.37,1.37,0,0,1-1.28-1.24c-1.18-8.79-3.48-16.14-7.06-22-3.69-6.1-7.55-9.91-11.62-11.38s-10.91-2.27-20.53-2.27H191.28c-7.66,0-12.62.67-15,2.09-2.14,1.2-3.64,3.47-4.43,6.76a2.33,2.33,0,0,0,0,.37L170.42,118l-.27,10.83h.27v5.64h-.27v87.07c-.28,6.64-.72,12-1.29,16.43a53.51,53.51,0,0,1-8.66,22.14,46.7,46.7,0,0,1-18.95,16.56,59.18,59.18,0,0,1-21.84,5.64c-1.39.1-1.91-2-.68-2.7,5.53-3.29,11.73-7.45,16.26-12a38.07,38.07,0,0,0,10.78-21.62,216.76,216.76,0,0,0,1.62-24.41c.11-4.37.17-9.25.17-14.47v-114c0-13.66-.33-22.47-1.05-26.39s-2.26-6.72-4.6-8.19-7.44-2.27-15.32-2.27h-2.33a1.37,1.37,0,0,1-1.3-1.44v-3a1.37,1.37,0,0,1,1.3-1.43H244.32a1.36,1.36,0,0,1,1.3,1.38l1.2,39.84A1.38,1.38,0,0,1,245.52,93.07Z" transform="translate(-43.68 -50.37)"/><polygon class="cls-1" points="126.75 67.6 126.75 78.43 126.47 78.43 126.75 67.6"/><path class="cls-1" d="M170.42,134.44v70.45c0,6.15-.11,11.68-.27,16.62V134.44Z" transform="translate(-43.68 -50.37)"/><path class="cls-1" d="M170.15,128.8h.27V118Zm0,5.64v87.07c.16-4.94.27-10.47.27-16.62V134.44ZM211,102.49a1.37,1.37,0,0,0-1.3,1.43c-.13,9.73-1.65,16.26-4.64,19.62s-9.32,5.22-18.71,5.22l-14.6,0a1.38,1.38,0,0,0-1.3,1.44V133a1.38,1.38,0,0,0,1.31,1.43l14.59,0c7.65,0,12.79.8,15.42,2.34s4.64,4.49,6,8.73c1.26,4,1.88,9.28,1.95,15.94a1.38,1.38,0,0,0,1.3,1.43h3.17a1.37,1.37,0,0,0,1.3-1.43V103.92a1.37,1.37,0,0,0-1.3-1.43Z" transform="translate(-43.68 -50.37)"/><circle class="cls-2" cx="48.94" cy="215.78" r="16.14"/><text class="cls-3" transform="translate(0.6 281.02)">Jnglert Films</text></svg>